#!OML:ASF H:\Punching\Project 1\Capture day 1\Session 1\female.ASF
:FULLY-SPECIFIED
:DEGREES
1567
root 0.037616 15.5437 -5.54231 -344.233 368.218 -0.95334
lowerback -7.61322 1.76884 1.2682
upperback -6.89455 2.32078 -0.121444
thorax -2.81735 1.12495 -0.719165
lowerneck -13.9069 5.07955 12.3989
upperneck 37.0162 5.80237 -4.52466
head 16.0752 3.66158 -3.09017
rclavicle 1.01567e-014 2.77802e-014
rhumerus -36.5441 -3.71652 -78.254
rradius 27.222
rwrist 12.195
rhand -13.4511 -4.5938
rfingers 7.12502
rthumb 12.6583 -34.1902
lclavicle 1.01567e-014 2.77802e-014
lhumerus -46.4458 5.56648 75.1356
lradius 49.9469
lwrist -11.0188
lhand -5.10158 12.0001
lfingers 7.12502
lthumb 20.6958 40.9166
rfemur -23.2962 -9.12275 22.4773
rtibia 43.3916
rfoot -23.9649 -22.4456
rtoes -21.1938
lfemur -16.9387 -11.0646 -25.8673
ltibia 24.746
lfoot -21.3698 13.5436
ltoes 8.38806
1568
root 0.0644758 15.5444 -5.51551 -344.318 368.33 -0.8904
lowerback -7.48452 1.73473 1.20435
upperback -6.82935 2.28018 -0.091276
thorax -2.8243 1.10778 -0.657391
lowerneck -13.8863 5.0704 12.4077
upperneck 36.9855 5.79301 -4.54096
head 16.0543 3.6562 -3.10032
rclavicle 2.09221e-014 2.45499e-014
rhumerus -36.764 -4.20386 -77.533
rradius 27.1109
rwrist 12.2982
rhand -13.4793 -4.61227
rfingers 7.12502
rthumb 12.6312 -34.2104
lclavicle 2.09221e-014 2.45499e-014
lhumerus -46.5198 5.46179 75.437
lradius 50.0766
lwrist -11.12
lhand -4.841 11.8691
lfingers 7.12502
lthumb 20.9462 40.7581
rfemur -24.0907 -9.2141 22.2309
rtibia 45.1838
rfoot -23.1486 -22.2301
rtoes -21.3256
lfemur -16.4849 -11.1054 -26.0442
ltibia 24.2889
lfoot -21.1811 13.4294
ltoes 8.3174
1569
root 0.0911077 15.5455 -5.4884 -344.404 368.442 -0.812679
lowerback -7.34971 1.69396 1.12377
upperback -6.75922 2.23133 -0.0615789
thorax -2.83014 1.08707 -0.587161
lowerneck -13.8694 5.06365 12.4156
upperneck 36.9555 5.78984 -4.56468
head 16.0356 3.65219 -3.11241
rclavicle -1.26725e-014 1.8487e-014
rhumerus -36.984 -4.63738 -76.8428
rradius 27.0377
rwrist 12.3226
rhand -13.5259 -4.61792
rfingers 7.12502
rthumb 12.5862 -34.2188
lclavicle -1.26725e-014 1.8487e-014
lhumerus -46.5989 5.36477 75.734
lradius 50.2123
lwrist -11.1935
lhand -4.58258 11.7586
lfingers 7.12502
lthumb 21.1944 40.62
rfemur -24.9445 -9.23752 21.9725
rtibia 47.0532
rfoot -22.2775 -22.0852
rtoes -21.1688
lfemur -15.9995 -11.1442 -26.2368
ltibia 23.7787
lfoot -20.9664 13.3093
ltoes 8.22445
1570
root 0.117258 15.5467 -5.46103 -344.492 368.552 -0.71553
lowerback -7.20725 1.64617 1.01792
upperback -6.68472 2.17408 -0.0334372
thorax -2.83649 1.06303 -0.504842
lowerneck -13.858 5.06 12.4184
upperneck 36.933 5.79289 -4.58972
head 16.0227 3.64998 -3.12315
rclavicle 2.41228e-014 1.35174e-014
rhumerus -37.198 -5.01921 -76.1861
rradius 26.992
rwrist 12.2745
rhand -13.5858 -4.60407
rfingers 7.12502
rthumb 12.5284 -34.2085
lclavicle 2.41228e-014 1.35174e-014
lhumerus -46.6798 5.2713 76.0265
lradius 50.3503
lwrist -11.2243
lhand -4.33134 11.6888
lfingers 7.12502
lthumb 21.4358 40.523
rfemur -25.8516 -9.19576 21.7028
rtibia 48.9769
rfoot -21.3524 -22.0147
rtoes -20.632
lfemur -15.4801 -11.1806 -26.4501
ltibia 23.2131
lfoot -20.729 13.1849
ltoes 8.12508
1571
root 0.142421 15.5483 -5.43281 -344.582 368.651 -0.603837
lowerback -7.05563 1.5991 0.889367
upperback -6.6094 2.11855 -0.00918586
thorax -2.84753 1.04055 -0.413874
lowerneck -13.8511 5.054 12.4058
upperneck 36.9199 5.7927 -4.60371
head 16.0139 3.64593 -3.12706
rclavicle 5.27898e-014 8.74653e-015
rhumerus -37.4119 -5.36523 -75.5613
rradius 26.9608
rwrist 12.1679
rhand -13.6737 -4.56436
rfingers 7.12502
rthumb 12.4437 -34.1739
lclavicle 5.27898e-014 8.74653e-015
lhumerus -46.7645 5.15991 76.3206
lradius 50.4888
lwrist -11.202
lhand -4.09179 11.6584
lfingers 7.12502
lthumb 21.6658 40.4662
rfemur -26.8036 -9.08154 21.4325
rtibia 50.9262
rfoot -20.3552 -22.0281
rtoes -19.7378
lfemur -14.9237 -11.2115 -26.6776
ltibia 22.5906
lfoot -20.473 13.0591
ltoes 8.04044
1572
root 0.166627 15.5499 -5.40382 -344.684 368.742 -0.476705
lowerback -6.89091 1.54711 0.735204
upperback -6.52671 2.05722 0.0146763
thorax -2.85886 1.01604 -0.309331
lowerneck -13.8489 5.05497 12.3903
upperneck 36.9105 5.805 -4.62151
head 16.0097 3.64616 -3.12985
rclavicle -6.0443e-015 -6.06293e-015
rhumerus -37.6078 -5.68109 -74.9646
rradius 26.9346
rwrist 12.0321
rhand -13.7149 -4.54495
rfingers 7.12502
rthumb 12.404 -34.1569
lclavicle -6.0443e-015 -6.06293e-015
lhumerus -46.8392 5.04436 76.6131
lradius 50.6128
lwrist -11.1234
lhand -3.88586 11.6606
lfingers 7.12502
lthumb 21.8636 40.4454
rfemur -27.7834 -8.90766 21.1654
rtibia 52.8727
rfoot -19.2806 -22.0964
rtoes -18.4657
lfemur -14.3209 -11.2307 -26.9222
ltibia 21.9113
lfoot -20.1997 12.9256
ltoes 7.9577
1573
root 0.189723 15.5517 -5.37385 -344.792 368.831 -0.338583
lowerback -6.72629 1.4887 0.556161
upperback -6.43189 1.98778 0.0417241
thorax -2.85824 0.988406 -0.187506
lowerneck -13.8536 5.06144 12.3715
upperneck 36.8986 5.82833 -4.64679
head 16.0073 3.6493 -3.13321
rclavicle -1.32316e-015 -1.42131e-014
rhumerus -37.7741 -5.97493 -74.3943
rradius 26.9029
rwrist 11.8858
rhand -13.7148 -4.55503
rfingers 7.12502
rthumb 12.4041 -34.167
lclavicle -1.32316e-015 -1.42131e-014
lhumerus -46.8944 4.92414 76.9106
lradius 50.7185
lwrist -10.9949
lhand -3.72111 11.7059
lfingers 7.12502
lthumb 22.0218 40.4721
rfemur -28.784 -8.68176 20.9136
rtibia 54.7855
rfoot -18.1171 -22.1785
rtoes -16.7788
lfemur -13.6766 -11.241 -27.1754
ltibia 21.1762
lfoot -19.9117 12.7787
ltoes 7.89684
1574
root 0.211672 15.5536 -5.34293 -344.908 368.921 -0.192399
lowerback -6.5516 1.42784 0.363223
upperback -6.33384 1.9151 0.0660409
thorax -2.85992 0.959465 -0.0608464
lowerneck -13.8499 5.06919 12.3543
upperneck 36.8806 5.85564 -4.67599
head 16.0004 3.65372 -3.13782
rclavicle -7.61904e-015 -1.28216e-014
rhumerus -37.9323 -6.26314 -73.8483
rradius 26.8672
rwrist 11.7435
rhand -13.7165 -4.56749
rfingers 7.12502
rthumb 12.4024 -34.1796
lclavicle -7.61904e-015 -1.28216e-014
lhumerus -46.9397 4.78221 77.2103
lradius 50.801
lwrist -10.8326
lhand -3.61433 11.7698
lfingers 7.12502
lthumb 22.1243 40.5239
rfemur -29.7983 -8.41658 20.6845
rtibia 56.6392
rfoot -16.8687 -22.2362
rtoes -14.6625
lfemur -12.9942 -11.2496 -27.4328
ltibia 20.3914
lfoot -19.6097 12.6249
ltoes 7.85156
1575
root 0.232152 15.5557 -5.31048 -345.041 369.019 -0.0439134
lowerback -6.36039 1.35677 0.155782
upperback -6.22706 1.82883 0.0957834
thorax -2.86197 0.92418 0.0789671
lowerneck -13.8498 5.08339 12.331
upperneck 36.8592 5.89498 -4.70805
head 15.994 3.6617 -3.1403
rclavicle -1.14565e-014 -2.18663e-015
rhumerus -38.0738 -6.52737 -73.3339
rradius 26.8286
rwrist 11.6096
rhand -13.74 -4.58203
rfingers 7.12502
rthumb 12.3798 -34.1955
lclavicle -1.14565e-014 -2.18663e-015
lhumerus -46.9694 4.64162 77.5071
lradius 50.8519
lwrist -10.6641
lhand -3.57076 11.8541
lfingers 7.12502
lthumb 22.1661 40.6033
rfemur -30.8001 -8.11407 20.4871
rtibia 58.4085
rfoot -15.5573 -22.275
rtoes -12.2085
lfemur -12.267 -11.2515 -27.6873
ltibia 19.5693
lfoot -19.2981 12.4569
ltoes 7.79691
1576
root 0.251463 15.5577 -5.27685 -345.181 369.127 0.102001
lowerback -6.16295 1.28277 -0.052153
upperback -6.11667 1.73793 0.123524
thorax -2.8632 0.886365 0.217082
lowerneck -13.8461 5.10204 12.3284
upperneck 36.8273 5.94176 -4.75844
head 15.9842 3.67298 -3.15289
rclavicle 3.60196e-014 -5.76476e-015
rhumerus -38.2084 -6.78682 -72.8492
rradius 26.7886
rwrist 11.4892
rhand -13.7856 -4.59829
rfingers 7.12502
rthumb 12.3359 -34.2144
lclavicle 3.60196e-014 -5.76476e-015
lhumerus -46.9777 4.49944 77.7899
lradius 50.8594
lwrist -10.5177
lhand -3.55769 11.9105
lfingers 7.12502
lthumb 22.1787 40.6582
rfemur -31.7946 -7.7831 20.3256
rtibia 60.0765
rfoot -14.2623 -22.3252
rtoes -9.53161
lfemur -11.5196 -11.2644 -27.9315
ltibia 18.731
lfoot -18.9961 12.2859
ltoes 7.80135
1577
root 0.269651 15.5592 -5.24191 -345.324 369.25 0.24019
lowerback -5.95816 1.20833 -0.247122
upperback -6.01322 1.64521 0.144708
thorax -2.87473 0.846908 0.341243
lowerneck -13.8213 5.11829 12.3413
upperneck 36.7898 5.98439 -4.81252
head 15.9669 3.68446 -3.17076
rclavicle -4.25135e-014 -5.56597e-015
rhumerus -38.3665 -7.04875 -72.3935
rradius 26.7545
rwrist 11.3915
rhand -13.8577 -4.61562
rfingers 7.12502
rthumb 12.2663 -34.2359
lclavicle -4.25135e-014 -5.56597e-015
lhumerus -46.9804 4.34818 78.0487
lradius 50.8262
lwrist -10.4197
lhand -3.53032 11.9596
lfingers 7.12502
lthumb 22.2049 40.7042
rfemur -32.7694 -7.43471 20.205
rtibia 61.6268
rfoot -13.0832 -22.4577
rtoes -6.88168
lfemur -10.7671 -11.2838 -28.1595
ltibia 17.9036
lfoot -18.7102 12.109
ltoes 7.83735
1578
root 0.286887 15.5598 -5.20593 -345.465 369.394 0.369214
lowerback -5.75912 1.13133 -0.42541
upperback -5.91123 1.54775 0.159999
thorax -2.88346 0.804233 0.450393
lowerneck -13.8012 5.13465 12.3621
upperneck 36.758 6.02288 -4.86276
head 15.9535 3.69589 -3.18908
rclavicle 3.15707e-014 1.03368e-014
rhumerus -38.5302 -7.31707 -71.9679
rradius 26.7194
rwrist 11.3223
rhand -13.9492 -4.6254
rfingers 7.12502
rthumb 12.178 -34.2509
lclavicle 3.15707e-014 1.03368e-014
lhumerus -46.9631 4.20546 78.277
lradius 50.7474
lwrist -10.3811
lhand -3.48218 12.0031
lfingers 7.12502
lthumb 22.2511 40.7422
rfemur -33.7213 -7.07898 20.1255
rtibia 63.0479
rfoot -12.1358 -22.7372
rtoes -4.41827
lfemur -10.0344 -11.3142 -28.3692
ltibia 17.1191
lfoot -18.4488 11.9301
ltoes 7.88679
1579
root 0.303239 15.5593 -5.16883 -345.595 369.557 0.486958
lowerback -5.57224 1.05355 -0.583616
upperback -5.81812 1.44798 0.168964
thorax -2.89354 0.75951 0.542301
lowerneck -13.7729 5.14855 12.3879
upperneck 36.7345 6.05428 -4.90388
head 15.9416 3.70672 -3.20586
rclavicle -6.6291e-015 -1.74931e-014
rhumerus -38.7147 -7.59881 -71.5642
rradius 26.6825
rwrist 11.2965
rhand -14.0219 -4.67205
rfingers 7.12502
rthumb 12.108 -34.3017
lclavicle -6.6291e-015 -1.74931e-014
lhumerus -46.942 4.06634 78.4732
lradius 50.6356
lwrist -10.4023
lhand -3.39655 12.0048
lfingers 7.12502
lthumb 22.3333 40.734
rfemur -34.649 -6.71942 20.0855
rtibia 64.3268
rfoot -11.4918 -23.1714
rtoes -2.3347
lfemur -9.34596 -11.3466 -28.559
ltibia 16.4075
lfoot -18.215 11.7503
ltoes 7.89961
1580
root 0.318913 15.5579 -5.13056 -345.715 369.747 0.590965
lowerback -5.40074 0.971508 -0.714332
upperback -5.73499 1.34125 0.173028
thorax -2.90413 0.710212 0.614187
lowerneck -13.7355 5.16205 12.4148
upperneck 36.7211 6.08217 -4.93324
head 15.9319 3.7183 -3.21864
rclavicle -3.78506e-015 3.37934e-015
rhumerus -38.9201 -7.89036 -71.1825
rradius 26.6429
rwrist 11.3136
rhand -14.0724 -4.74466
rfingers 7.12502
rthumb 12.0593 -34.3772
lclavicle -3.78506e-015 3.37934e-015
lhumerus -46.9181 3.93263 78.6383
lradius 50.496
lwrist -10.4724
lhand -3.29064 11.9898
lfingers 7.12502
lthumb 22.435 40.7068
rfemur -35.5485 -6.36411 20.0819
rtibia 65.4515
rfoot -11.1763 -23.6974
rtoes -0.675672
lfemur -8.71587 -11.3834 -28.7254
ltibia 15.7917
lfoot -18.0108 11.5681
ltoes 7.85159
